<svg xmlns="http://www.w3.org/2000/svg" viewBox="0 0 280 60">
  <defs>
    <style>
      .cls-1, .cls-2 {
        fill: #fff;
      }

      .cls-2 {
        font-size: 15px;
        font-family: AdventPro-Regular, Advent Pro;
      }
    </style>
  </defs>
  <g id="logo" transform="translate(25.364 0.017)">
    <path id="Path_1" data-name="Path 1" class="cls-1" d="M118.167,30.537a5.9,5.9,0,0,1-1.06,3,5.252,5.252,0,0,1-1.925,2.169c-.734.391-1.093.359-1.093-.114a4.632,4.632,0,0,1,.636-.7q1.941-1.81,1.941-3,0-2.528-4.991-2.528a26.39,26.39,0,0,0-5.578.8,26.1,26.1,0,0,0-6.687,2.561q-3.8,2.055-3.8,3.572,0,1.24,2.283,2.349,1.24.587,4.893,1.974t5.953,2.479a16.179,16.179,0,0,1,4.29,2.9,5.611,5.611,0,0,1,2.022,4.175,7.519,7.519,0,0,1-2.707,4.991,32.62,32.62,0,0,1-10.683,6.524A31.511,31.511,0,0,1,90.39,64.3q-9.28,0-9.28-5.219T86.8,50.207a17.142,17.142,0,0,1,9.786-3.262c.815,0,1.191.13,1.109.408s-.669.424-1.762.44A12.1,12.1,0,0,0,91.712,48.9a16.588,16.588,0,0,0-4.893,3.148,7.356,7.356,0,0,0-2.936,5.284,3.735,3.735,0,0,0,1.631,2.936q1.631,1.289,6.051,1.288a28.428,28.428,0,0,0,8.807-1.4q9.395-3.115,11.743-6.818a4.273,4.273,0,0,0,.946-2.283,4.7,4.7,0,0,0-3.262-4.224,109.124,109.124,0,0,0-10.683-4.045,14.956,14.956,0,0,1-4.485-2.316,4.273,4.273,0,0,1-1.843-3.458,5.5,5.5,0,0,1,2.2-4,16.8,16.8,0,0,1,5.317-3.148,33.256,33.256,0,0,1,11.336-2.528Q118.167,27.308,118.167,30.537Z" transform="translate(-81.11 -26.775)"/>
    <path id="Path_2" data-name="Path 2" class="cls-1" d="M112.947,41.838q4.518-.408,5.5-.408c.652,0,.962.1.962.294s-.457.473-1.386.734a57.916,57.916,0,0,1-6.72.962l-.7,1.24a9.428,9.428,0,0,0-.946,1.631A36.046,36.046,0,0,0,106.13,54.8a12.018,12.018,0,0,0,0,1.354,1.941,1.941,0,0,0,.473,1.354q.816.946,2.349.114a24.856,24.856,0,0,0,4.257-3.262,31.576,31.576,0,0,0,4.436-4.893.424.424,0,0,1,.587-.114q.881.408-3.05,4.632A18.854,18.854,0,0,1,108.9,58.98a7.519,7.519,0,0,1-2.463.522,3.017,3.017,0,0,1-3.115-2.234,3.735,3.735,0,0,1-.114-.995,17.256,17.256,0,0,1,1.876-6.23,18.673,18.673,0,0,1-2.283,2.936q-.522.587-.816,0a.75.75,0,0,1,0-.326.864.864,0,0,1,.228-.506q2.871-3.588,4.518-6.051s.424-.864,1.288-2.463a6.1,6.1,0,0,1-1.207.114,1.076,1.076,0,0,1-.913-.375.832.832,0,0,1,0-.913q.408-.946,3.115-1.06a.245.245,0,0,1,.228-.114l2.936-5.464c.163-.31.326-.636.522-.962l.44-.767.326-.555a2.51,2.51,0,0,1,.294-.408l.228-.228c.163-.228.62-.359,1.386-.359a1.631,1.631,0,0,1,1.631.652,1.354,1.354,0,0,1,.179.8,2.414,2.414,0,0,1-.408,1.24,2.87,2.87,0,0,1-.881.962,1.631,1.631,0,0,0-.652.652l-2.822,4.893Z" transform="translate(-67.948 -23.511)"/>
    <path id="Path_3" data-name="Path 3" class="cls-1" d="M125.181,37.84q3.18,0,3.18,3.05a3.768,3.768,0,0,1-.881,2.577,11.874,11.874,0,0,1-4.7,3.784,16,16,0,0,1-5.578,1.794c-.555,0-.848-.114-.881-.473s0-.261.147-.294h.326a9.33,9.33,0,0,0,3.474-1.289,18.952,18.952,0,0,0,5.757-4.338,3.507,3.507,0,0,0,.767-2.022.848.848,0,0,0-.946-.962,4.991,4.991,0,0,0-2.055.652,20.273,20.273,0,0,0-5.9,4.42,16.31,16.31,0,0,0-4,6.247,6.23,6.23,0,0,0-.294,1.843,2.528,2.528,0,0,0,.767,1.729,3.05,3.05,0,0,0,2.349.815,10.9,10.9,0,0,0,4.045-.946,21.546,21.546,0,0,0,10.177-8.171c.228-.31.457-.375.652-.179s.228.179.228.294a.718.718,0,0,1-.179.408A20.959,20.959,0,0,1,127.171,52a15.886,15.886,0,0,1-10.161,4.469,6.622,6.622,0,0,1-5.937-2.528,4.338,4.338,0,0,1-.652-2.414,9.378,9.378,0,0,1,.767-3.344,18.4,18.4,0,0,1,6.361-6.818Q122.36,37.84,125.181,37.84Z" transform="translate(-62.616 -20.149)"/>
    <path id="Path_4" data-name="Path 4" class="cls-1" d="M125.99,43.184q0-2.822-1.631-2.822a3.344,3.344,0,0,0-.734.082c-.261,0-.375,0-.375-.147a.962.962,0,0,1,.359-.587,6.083,6.083,0,0,1,2.4-.473c1.631,0,2.675.228,3.083.7a2.153,2.153,0,0,1,.62,1.4,14.5,14.5,0,0,1-1.093,3.49q-1.093,2.789-1.142,2.9a21.791,21.791,0,0,0-1.631,6.638q5.284-7.111,6.932-8.873,3.458-3.817,4.893-5.219a22.476,22.476,0,0,1,5.986-4.29,3.833,3.833,0,0,1,1.354-.294,2.822,2.822,0,0,1,2.642,1.174.913.913,0,0,1,.228.555,1.4,1.4,0,0,1-.179.62c-.114.228-.343.228-.652,0a3.784,3.784,0,0,0-2.12-.375q-2.707,0-9.036,6.345a83.721,83.721,0,0,0-7.013,8.155,16.832,16.832,0,0,0-3.441,6.1q0,.473-.881.473a1.435,1.435,0,0,1-1.321-.734,2.561,2.561,0,0,1-.44-1.24,6,6,0,0,1,0-.881,42.053,42.053,0,0,1,1.174-4.322q1.174-3.947,1.4-5.219-.7,1.174-1.941,2.871c-.277.31-.506.408-.669.261s-.261-.261-.261-.375a.93.93,0,0,1,.114-.408,22.3,22.3,0,0,0,3.376-5.513Z" transform="translate(-54.993 -21.513)"/>
    <path id="Path_5" data-name="Path 5" class="cls-1" d="M146,37.84q3.164,0,3.164,3.05a3.768,3.768,0,0,1-.881,2.577,11.89,11.89,0,0,1-4.763,3.784,16.033,16.033,0,0,1-5.578,1.794c-.555,0-.848-.114-.881-.473s0-.261.147-.294h.326A9.313,9.313,0,0,0,141,46.99a18.953,18.953,0,0,0,5.757-4.338,3.49,3.49,0,0,0,.767-2.022.848.848,0,0,0-.946-.962,4.991,4.991,0,0,0-2.055.652,20.273,20.273,0,0,0-5.806,4.485,16.31,16.31,0,0,0-4,6.247,6.132,6.132,0,0,0-.294,1.843,2.512,2.512,0,0,0,.767,1.729,3.066,3.066,0,0,0,2.349.816,10.879,10.879,0,0,0,4.045-.946,21.546,21.546,0,0,0,10.226-8.155c.228-.31.457-.375.636-.179s.228.179.228.294a.718.718,0,0,1-.179.408,21.024,21.024,0,0,1-4.469,5.219,15.9,15.9,0,0,1-10.161,4.469,6.622,6.622,0,0,1-5.921-2.528,4.306,4.306,0,0,1-.652-2.414,9.429,9.429,0,0,1,.767-3.344,18.415,18.415,0,0,1,6.312-6.9Q143.181,37.84,146,37.84Z" transform="translate(-49.447 -20.149)"/>
    <path id="Path_6" data-name="Path 6" class="cls-1" d="M161.192,38.09q1.354,0,1.354,1.435a9.281,9.281,0,0,1-1.354,3.963,45.558,45.558,0,0,0-1.99,4.11,12.086,12.086,0,0,0-1.109,4.322,3.409,3.409,0,0,0,.473,2.137q.881.946,2.414.082a27.027,27.027,0,0,0,4.257-3.262,28.15,28.15,0,0,0,4.355-4.779.424.424,0,0,1,.555-.147c.212.1.326.2.326.294a.6.6,0,0,1-.114.326,22.834,22.834,0,0,1-3.164,4.045,29.064,29.064,0,0,1-4.4,3.963,7.193,7.193,0,0,1-4.159,1.5,4,4,0,0,1-2.822-.913,2.969,2.969,0,0,1-.815-2.137,13.05,13.05,0,0,1,.228-2.5,15.36,15.36,0,0,1,.881-2.789,39.142,39.142,0,0,1,1.843-3.931,5.4,5.4,0,0,0,.783-1.843q0-.44-.473-.44-.946,0-3.588,2.283a55.1,55.1,0,0,0-5.366,6.426,46.454,46.454,0,0,1-4.078,4.991,9.215,9.215,0,0,1-2.642,1.06c-.359,0-.522,0-.522-.179a1.632,1.632,0,0,1,.114-.506l1.142-3.262q1.028-2.871,2.234-6.312t1.468-4.143a6.946,6.946,0,0,0,.343-1.207,6.12,6.12,0,0,1,.212-.848,2.888,2.888,0,0,1,.44-.8,1.093,1.093,0,0,1,.848-.473,6.132,6.132,0,0,1,1.354.114q.816.147.816.734a5.937,5.937,0,0,1-.636,1.794q-.652,1.386-3.7,9.476,2.12-2.577,5.35-5.953a55.993,55.993,0,0,1,5.464-5.138,6.948,6.948,0,0,1,3.686-1.5Z" transform="translate(-42.65 -19.991)"/>
    <path id="Path_7" data-name="Path 7" class="cls-1" d="M165.555,60.495a.669.669,0,0,0,.767.767q.767,0,2.055-1.631c.864-1.076,1.452-1.631,1.762-1.631s0,.75-.767,1.533a4.137,4.137,0,0,0-.408.62q-.294.506-.489.8l-.555.767a7.6,7.6,0,0,1-.652.767,7.844,7.844,0,0,1-.652.587,2.055,2.055,0,0,1-1.24.587,6.931,6.931,0,0,1-1.435-.212c-.6-.13-.913-.277-.946-.44a2.966,2.966,0,0,1,0-.408q0-3.05,4.991-12.51a9.786,9.786,0,0,1-1.207,0,.571.571,0,0,1-.522-.473c0-.277,0-.424.228-.473a2.006,2.006,0,0,1,.669,0,8.594,8.594,0,0,0,1.24,0q3-5.4,3.588-6.606a4.762,4.762,0,0,0,.587-1.729,4.48,4.48,0,0,0,0-.816,9.2,9.2,0,0,1,2.854-4.322A7.176,7.176,0,0,1,180.152,33a5.138,5.138,0,0,1,1.908.522q1.207.522,1.386,1.207c.114.457.147.7.082.767s-.2,0-.375,0l-.342-.114q-4.224,0-12.037,13.8a48.082,48.082,0,0,0,13.048-2.561,25.3,25.3,0,0,0,10.308-5.953,5.872,5.872,0,0,0,2.006-4.143q0-6.524-13.44-6.524a45.75,45.75,0,0,0-14.679,2.349,19.573,19.573,0,0,0-6.2,3.458,8.253,8.253,0,0,0-3.017,4.893,3.817,3.817,0,0,0,0,.767,2.447,2.447,0,0,0,.375,1.142,2.952,2.952,0,0,0,.913,1.028,13.15,13.15,0,0,0,1.5.816,9.866,9.866,0,0,1,1.288.7c.212.163.261.326.147.506s-.375.228-.767.147a6.361,6.361,0,0,1-3.409-1.827,4.534,4.534,0,0,1-1.631-3.262,4.779,4.779,0,0,1,.114-1.06,8.852,8.852,0,0,1-.114-.946q.816-4.4,8.628-8.4a34.137,34.137,0,0,1,14.565-2.871,37.845,37.845,0,0,1,10.213,1.4,11.14,11.14,0,0,1,5.167,3.343,6.964,6.964,0,0,1,1.762,4.4,8.155,8.155,0,0,1-2.707,6.018,19.572,19.572,0,0,1-6.051,4.029,49.844,49.844,0,0,1-18.675,3.637q-2.283,4.192-3.474,6.818a12.135,12.135,0,0,0-1.093,3.409Z" transform="translate(-33.084 -26.722)"/>
    <path id="Path_8" data-name="Path 8" class="cls-1" d="M201.293,50.758a31.475,31.475,0,0,1-4.11,3.817,8.53,8.53,0,0,1-5.105,1.631,2.968,2.968,0,0,1-1.386-.506,2.479,2.479,0,0,1-1.142-1.435,6.132,6.132,0,0,1-.294-1.827,16.424,16.424,0,0,1,1.174-6.051,21.105,21.105,0,0,0-1.631,2.5,24.468,24.468,0,0,1-3.523,4.485,6,6,0,0,1-4.192,2.12,6.165,6.165,0,0,1-2.283-.522,3.882,3.882,0,0,1-2.349-3.817,13.049,13.049,0,0,1,2.381-7.128,14.206,14.206,0,0,1,3.017-3.9,6.524,6.524,0,0,1,1.631-.228,4.4,4.4,0,0,1,1.631.326q.816.326-.228,1.093a21.2,21.2,0,0,0-5.757,8.155,8.954,8.954,0,0,0-.652,2.968,1.849,1.849,0,0,0,.62,1.631,2.414,2.414,0,0,0,1.207.359,7.128,7.128,0,0,0,3.849-1.974,42.406,42.406,0,0,0,6.72-8.155q.587-.881,2.055-3.441t1.762-3.017a6.867,6.867,0,0,1,2.2.44q1.256.44.848,1.142-2.822,4.7-3.963,6.932a16.2,16.2,0,0,0-1.631,5.219,12.948,12.948,0,0,0,0,1.354,1.957,1.957,0,0,0,.473,1.354c.587.62,1.4.652,2.43.082A25.233,25.233,0,0,0,199.3,51.1a28.706,28.706,0,0,0,4.387-4.844.424.424,0,0,1,.555-.147c.212.1.326.2.326.294a.587.587,0,0,1-.114.326A22.834,22.834,0,0,1,201.293,50.758Z" transform="translate(-20.953 -20.149)"/>
    <path id="Path_9" data-name="Path 9" class="cls-1" d="M195.909,54.242a13.96,13.96,0,0,0-.767,2.675v1.827a3.849,3.849,0,0,0,.587,2.088q.995,1.631,3.344.228a23.469,23.469,0,0,0,4.469-3.441,30.989,30.989,0,0,0,4.11-4.518.392.392,0,0,1,.343-.179c.359,0,.457.261.294.767a21.464,21.464,0,0,1-3.262,4.045,36.041,36.041,0,0,1-4.306,3.9,6.524,6.524,0,0,1-3.882,1.435q-4.469,0-4.469-4.338v-.359q.228-4.11,4.175-12.412a75.806,75.806,0,0,1,7.111-12.542l1.827-2.283a20.932,20.932,0,0,1,1.876-1.876,7.046,7.046,0,0,1,4.893-2.234,3.556,3.556,0,0,1,3.376,1.533,3.262,3.262,0,0,1,.294,1.533,7.176,7.176,0,0,1-.881,2.822Q208.941,43.314,195.909,54.242ZM213.41,31.9a4.7,4.7,0,0,0,.7-1.99q0-1.24-.995-1.24a3.719,3.719,0,0,0-2.055.946,37.594,37.594,0,0,0-9.1,11.515,78.1,78.1,0,0,0-5.17,10.863A45.261,45.261,0,0,0,205.858,43,68.648,68.648,0,0,0,213.41,31.9Z" transform="translate(-10.904 -26.993)"/>
    <path id="Path_10" data-name="Path 10" class="cls-1" d="M207.49,41.486q1.468,0,1.761.946a1.435,1.435,0,0,1-.147,1.028,8.418,8.418,0,0,0-.375.8l-.179.473c-.2.391-.391.767-.587,1.109a36.258,36.258,0,0,0-3.523,8.514,12.948,12.948,0,0,0,0,1.354,1.957,1.957,0,0,0,.473,1.354q.816.946,2.349.114a24.854,24.854,0,0,0,4.257-3.262,31.545,31.545,0,0,0,4.436-4.893.391.391,0,0,1,.522-.147q.294.147.294.294a.587.587,0,0,1-.114.326,22.832,22.832,0,0,1-3.164,4.045,18.854,18.854,0,0,1-6.279,4.991,7.519,7.519,0,0,1-2.463.522,3.017,3.017,0,0,1-3.115-2.234,3.6,3.6,0,0,1-.114-.995,17.224,17.224,0,0,1,1.876-6.23,18.9,18.9,0,0,1-2.283,2.936q-.538.587-.815,0a.75.75,0,0,1,0-.326.865.865,0,0,1,.228-.506q2.871-3.588,4.518-6.051a.962.962,0,0,1,.114-.767q1.174-3.262,2.055-3.458Zm4.632-7.813-.473,1.876a3.882,3.882,0,0,1-.767,1.631q-.767,1.174-1.174,1.174-2.528,0-2.528-1.24a12.41,12.41,0,0,1,2.528-2.169l.995-.767q.946-.816,1.174-.816a.212.212,0,0,1,.245.31Z" transform="translate(-5.913 -22.979)"/>
    <path id="Path_11" data-name="Path 11" class="cls-1" d="M212.558,51.052a33.91,33.91,0,0,1,5.431-3.963,18.806,18.806,0,0,1,4.469-2.055,13.26,13.26,0,0,1,3.262-.408,4.893,4.893,0,0,1,3,1.06q7.992-18.675,15.332-18.675a3.637,3.637,0,0,1,3.344,1.4,2.544,2.544,0,0,1,.408,1.24,8.155,8.155,0,0,1-1.256,3.735,24.548,24.548,0,0,1-3.9,4.893,88.566,88.566,0,0,1-7.584,6.671q-4.893,3.963-5.464,4.436a58.346,58.346,0,0,0-2.936,8.4,26.5,26.5,0,0,0-1.06,6.051,6.149,6.149,0,0,0,.7,3.164,1.484,1.484,0,0,0,1.06.913,1.631,1.631,0,0,0,1.207-.179,6.731,6.731,0,0,0,.767-.555,3.392,3.392,0,0,1,.652-.44c.261-.13.44-.163.555-.082s.1.294,0,.652a12.549,12.549,0,0,1-.881.995,3.784,3.784,0,0,1-2.2.652,15.02,15.02,0,0,1-1.631,0q-2.822-.473-2.822-4.11a21.644,21.644,0,0,1,.946-6.524q1.288-4.11,2.349-6.818-9.395,10.928-13.325,10.928a4.469,4.469,0,0,1-2.022-.555,5.3,5.3,0,0,1-1.843-1.631,3.621,3.621,0,0,1-.767-2.2,4.893,4.893,0,0,1,.522-2.234,15.381,15.381,0,0,1,3.686-4.763ZM228.2,46.583a6.067,6.067,0,0,0-2.463-.359,10.634,10.634,0,0,0-4.551,1.435,25.981,25.981,0,0,0-5.252,3.653,22.834,22.834,0,0,0-3.6,4.371A8.041,8.041,0,0,0,210.7,59.24q0,2.169,1.24,2.169a7.519,7.519,0,0,0,3.751-1.99,120.53,120.53,0,0,0,11.662-10.8ZM245.407,31.9a5.252,5.252,0,0,0,.767-2.381q0-.962-.848-.962a4.273,4.273,0,0,0-2.267,1.06q-6.524,4.893-11.678,16.506a51.18,51.18,0,0,0,7.992-6.524,33.046,33.046,0,0,0,6.035-7.7Z" transform="translate(-0.82 -27)"/>
    <path id="Path_12" data-name="Path 12" class="cls-1" d="M234.487,48.445a8.466,8.466,0,0,0,1.06-3.344,5.17,5.17,0,0,0-.261-1.843.962.962,0,0,1,.228-1.142,1.419,1.419,0,0,1,1.256-.359q1.174.294,1.174,2.642a11.76,11.76,0,0,1-2.756,6.165,1.452,1.452,0,0,0,1.631,1.631q1.631,0,4.893-3.409,1.533-1.761,1.908-2.283c.261-.359.473-.473.669-.375s.294.179.294.261a9,9,0,0,1-2.1,3.05q-3.344,4.11-5.937,4.11a2.463,2.463,0,0,1-2.414-1.468q-1.174,1.24-2.283,2.283a7.715,7.715,0,0,1-5.105,1.941,4.388,4.388,0,0,1-2.642-.767,4.7,4.7,0,0,1-2.088-4.4,12.82,12.82,0,0,1,2.349-7.046,17,17,0,0,1,3.164-3.7,8.53,8.53,0,0,1,5.464-2.528,4.306,4.306,0,0,1,1.24.179,2.234,2.234,0,0,1,1.761,2.234c0,.9-.228,1.354-.7,1.354-.2,0-.294-.375-.294-.881a1.087,1.087,0,0,0-1.174-1.06q-2.022.033-5.285,3.719a15.772,15.772,0,0,0-3.865,7.568,7.975,7.975,0,0,0-.114,1.435,4.061,4.061,0,0,0,.522,1.827,2.006,2.006,0,0,0,1.974,1.028,5.35,5.35,0,0,0,3.148-1.288,13.685,13.685,0,0,0,3.05-3.262l-.179-.359a1.631,1.631,0,0,1,.228-1.533,1.06,1.06,0,0,1,1.191-.375Z" transform="translate(7.783 -20.136)"/>
    <text id="Full_Stack_Web_Developer." data-name="Full Stack Web Developer." class="cls-2" transform="translate(-25.364 41.983)"><tspan x="136.215" y="14">Full Stack Web Developer.</tspan></text>
  </g>
</svg>
